<?xml version="1.0" encoding="UTF-8"?>
<svg version="1.1" xmlns="http://www.w3.org/2000/svg" width="1000" height="250">
<path d="M0 0 C10.23 0 20.46 0 31 0 C31 53.46 31 106.92 31 162 C21.76 162 12.52 162 3 162 C2.34 155.4 1.68 148.8 1 142 C-0.65 144.64 -2.3 147.28 -4 150 C-8.62074789 156.93112183 -16.00532122 161.44346902 -24.00390625 163.52734375 C-37.88188778 165.71669938 -50.25002627 164.0704053 -61.875 155.74609375 C-74.10864085 145.69381901 -79.63339687 131.9057735 -81.6875 116.5 C-83.44285741 96.13054002 -80.1898193 76.94497999 -67.19140625 60.74609375 C-59.10802584 51.88966657 -48.25422075 47.65795078 -36.47265625 46.8203125 C-26.27987714 46.53761601 -18.21471807 48.81862799 -10 55 C-6.14736224 58.69625763 -3.39216084 62.21567832 -1 67 C-0.67 44.89 -0.34 22.78 0 0 Z M-44.4375 79.75 C-51.86942244 91.10782497 -52.41054915 106.30348114 -49.7265625 119.34765625 C-47.85234857 126.18954473 -45.50074678 131.32436524 -40 136 C-39.401875 136.556875 -38.80375 137.11375 -38.1875 137.6875 C-31.92216427 141.44670144 -24.9630062 141.71312057 -18 140 C-10.34306988 136.59253454 -6.06074272 131.19019397 -2.88671875 123.5625 C1.38299475 111.22359228 1.29128865 96.43525354 -3.77734375 84.3359375 C-6.786296 78.58720445 -10.66402534 74.30109575 -16.671875 71.6640625 C-27.07889397 68.69561749 -37.53591248 71.27139126 -44.4375 79.75 Z " fill="#000000" transform="translate(813,42)"/>
<path d="M0 0 C8.46716972 8.00948487 15.23811295 20.6390689 15.81689453 32.45385742 C15.81858643 33.92109253 15.81858643 33.92109253 15.8203125 35.41796875 C15.82160156 36.48337891 15.82289063 37.54878906 15.82421875 38.64648438 C15.82035156 39.75314453 15.81648437 40.85980469 15.8125 42 C15.81636719 43.11826172 15.82023438 44.23652344 15.82421875 45.38867188 C15.82292969 46.45021484 15.82164062 47.51175781 15.8203125 48.60546875 C15.81918457 49.5802417 15.81805664 50.55501465 15.81689453 51.55932617 C15.6875 53.8125 15.6875 53.8125 14.6875 54.8125 C12.28401714 54.90746708 9.90939018 54.93808862 7.50561523 54.92602539 C6.3788588 54.92624443 6.3788588 54.92624443 5.2293396 54.9264679 C2.73489541 54.92576863 0.24052497 54.91797564 -2.25390625 54.91015625 C-3.97883564 54.90829212 -5.70376557 54.90686819 -7.42869568 54.90586853 C-11.97762503 54.90204297 -16.52652267 54.89221238 -21.07543945 54.88116455 C-25.71370006 54.87095124 -30.35196577 54.86637108 -34.99023438 54.86132812 C-44.09767022 54.85059014 -53.20508248 54.83351327 -62.3125 54.8125 C-61.87391811 56.71150851 -61.42533257 58.60820809 -60.97265625 60.50390625 C-60.72394775 61.56037354 -60.47523926 62.61684082 -60.21899414 63.70532227 C-58.21283017 70.58182345 -54.86661403 75.33880452 -48.5625 78.8125 C-40.35788448 82.36210162 -31.7811846 82.84296067 -23.3125 79.8125 C-17.91891529 76.80883127 -14.35488572 73.13667502 -11.3125 67.8125 C-7.82673718 68.42284757 -4.7253077 69.32858461 -1.44921875 70.66015625 C-0.11987305 71.19672852 -0.11987305 71.19672852 1.23632812 71.74414062 C2.14833984 72.11732422 3.06035156 72.49050781 4 72.875 C4.93134766 73.25205078 5.86269531 73.62910156 6.82226562 74.01757812 C9.11228917 74.94533125 11.40059996 75.87708001 13.6875 76.8125 C11.11827656 86.06708494 3.96628147 92.63595722 -4.0625 97.5703125 C-19.48262279 106.08350529 -37.5792986 107.38211653 -54.625 103.125 C-69.30388302 98.48956326 -80.1405409 89.54441102 -87.3125 75.8125 C-95.1662075 59.31725226 -95.09520534 39.44222868 -89.46044922 22.28955078 C-87.50235774 16.81707728 -84.9456083 12.31643065 -81.3125 7.8125 C-80.87421875 7.20277344 -80.4359375 6.59304687 -79.984375 5.96484375 C-72.10850844 -4.33262545 -58.73294136 -9.92014538 -46.21875 -11.87109375 C-29.61416261 -13.67885125 -13.26683542 -10.61856117 0 0 Z M-56.3125 18.8125 C-59.93811709 24.58409045 -61.33018002 28.93626016 -62.3125 35.8125 C-46.4725 35.8125 -30.6325 35.8125 -14.3125 35.8125 C-15.2603047 26.33445297 -16.41776591 21.04833667 -23.3125 14.9375 C-33.3711251 7.81264055 -48.17515994 9.13504191 -56.3125 18.8125 Z " fill="#000000" transform="translate(961.3125,101.1875)"/>
<path d="M0 0 C8.46716972 8.00948487 15.23811295 20.6390689 15.81689453 32.45385742 C15.81858643 33.92109253 15.81858643 33.92109253 15.8203125 35.41796875 C15.82160156 36.48337891 15.82289063 37.54878906 15.82421875 38.64648438 C15.82035156 39.75314453 15.81648438 40.85980469 15.8125 42 C15.81636719 43.11826172 15.82023437 44.23652344 15.82421875 45.38867188 C15.82292969 46.45021484 15.82164062 47.51175781 15.8203125 48.60546875 C15.81918457 49.5802417 15.81805664 50.55501465 15.81689453 51.55932617 C15.6875 53.8125 15.6875 53.8125 14.6875 54.8125 C12.28401714 54.90746708 9.90939018 54.93808862 7.50561523 54.92602539 C6.3788588 54.92624443 6.3788588 54.92624443 5.2293396 54.9264679 C2.73489541 54.92576863 0.24052497 54.91797564 -2.25390625 54.91015625 C-3.97883564 54.90829212 -5.70376557 54.90686819 -7.42869568 54.90586853 C-11.97762503 54.90204297 -16.52652267 54.89221238 -21.07543945 54.88116455 C-25.71370006 54.87095124 -30.35196577 54.86637108 -34.99023438 54.86132812 C-44.09767022 54.85059014 -53.20508248 54.83351327 -62.3125 54.8125 C-61.87391811 56.71150851 -61.42533257 58.60820809 -60.97265625 60.50390625 C-60.72394775 61.56037354 -60.47523926 62.61684082 -60.21899414 63.70532227 C-58.21283017 70.58182345 -54.86661403 75.33880452 -48.5625 78.8125 C-40.35788448 82.36210162 -31.7811846 82.84296067 -23.3125 79.8125 C-17.91891529 76.80883127 -14.35488572 73.13667502 -11.3125 67.8125 C-7.82673718 68.42284757 -4.7253077 69.32858461 -1.44921875 70.66015625 C-0.11987305 71.19672852 -0.11987305 71.19672852 1.23632812 71.74414062 C2.14833984 72.11732422 3.06035156 72.49050781 4 72.875 C4.93134766 73.25205078 5.86269531 73.62910156 6.82226562 74.01757812 C9.11228917 74.94533125 11.40059996 75.87708001 13.6875 76.8125 C11.11827656 86.06708494 3.96628147 92.63595722 -4.0625 97.5703125 C-19.48262279 106.08350529 -37.5792986 107.38211653 -54.625 103.125 C-69.30388302 98.48956326 -80.1405409 89.54441102 -87.3125 75.8125 C-95.1662075 59.31725226 -95.09520534 39.44222868 -89.46044922 22.28955078 C-87.50235774 16.81707728 -84.9456083 12.31643065 -81.3125 7.8125 C-80.87421875 7.20277344 -80.4359375 6.59304687 -79.984375 5.96484375 C-72.10850844 -4.33262545 -58.73294136 -9.92014538 -46.21875 -11.87109375 C-29.61416261 -13.67885125 -13.26683542 -10.61856117 0 0 Z M-56.3125 18.8125 C-59.93811709 24.58409045 -61.33018002 28.93626016 -62.3125 35.8125 C-46.4725 35.8125 -30.6325 35.8125 -14.3125 35.8125 C-15.2603047 26.33445297 -16.41776591 21.04833667 -23.3125 14.9375 C-33.3711251 7.81264055 -48.17515994 9.13504191 -56.3125 18.8125 Z " fill="#000000" transform="translate(198.3125,101.1875)"/>
<path d="M0 0 C11.00108235 9.12284878 17.559085 22.74836383 19.2421875 36.859375 C20.71066542 55.73339538 18.12587872 72.3266353 6.12890625 87.5390625 C-2.82318739 97.43902487 -15.89560405 103.98715683 -29.24487305 105.05908203 C-31.8574861 105.16208382 -34.45576843 105.18864872 -37.0703125 105.171875 C-37.99384521 105.16623535 -38.91737793 105.1605957 -39.86889648 105.15478516 C-55.10460312 104.88446344 -68.38416055 99.99552302 -79.50390625 89.33984375 C-91.64077876 75.98297366 -95.45570484 59.0803231 -94.6953125 41.421875 C-93.68098267 26.0170703 -88.42908411 12.36351945 -76.7578125 1.859375 C-76.27054688 1.37984375 -75.78328125 0.9003125 -75.28125 0.40625 C-55.34897463 -18.29797049 -20.74151047 -15.50643275 0 0 Z M-57.7578125 20.859375 C-62.25308167 29.16331603 -62.95817491 37.2832603 -63.0078125 46.546875 C-63.0284375 47.48982422 -63.0490625 48.43277344 -63.0703125 49.40429688 C-63.12799727 59.89571415 -60.58729264 68.75660195 -53.7578125 76.859375 C-47.86648936 82.12519963 -41.61157596 82.2178298 -34.01953125 82.1328125 C-27.83614887 81.61444512 -23.77791375 79.20472145 -19.5078125 74.796875 C-11.13778405 64.2146047 -10.77878667 49.61245507 -12.06640625 36.78515625 C-13.32343058 28.80917004 -16.05295659 21.72722679 -21.7578125 15.859375 C-33.85181886 7.29519825 -48.37452182 9.68680938 -57.7578125 20.859375 Z " fill="#000000" transform="translate(691.7578125,101.140625)"/>
<path d="M0 0 C8.01489964 6.72089608 11.07043794 13.02381381 14.43359375 23.11328125 C0.07859375 28.06328125 0.07859375 28.06328125 -14.56640625 33.11328125 C-16.21640625 29.15328125 -17.86640625 25.19328125 -19.56640625 21.11328125 C-23.27334517 16.33328106 -27.64792781 13.62868472 -33.734375 12.828125 C-41.64654964 12.51490638 -48.1705293 14.88959226 -54.02734375 20.23828125 C-60.41458209 28.01968837 -60.76509752 38.2252893 -60.81640625 47.80078125 C-60.83703125 48.74373047 -60.85765625 49.68667969 -60.87890625 50.65820312 C-60.93026386 59.99886756 -59.09435385 70.00191804 -52.56640625 77.11328125 C-46.1763131 82.10630081 -39.77544835 82.65363457 -31.86328125 82.58203125 C-26.75713773 81.85603928 -22.75987663 79.90907043 -19.37890625 75.98828125 C-18.67701172 75.21097656 -18.67701172 75.21097656 -17.9609375 74.41796875 C-15.82848623 70.89374956 -14.76033419 67.03865274 -13.56640625 63.11328125 C-10.39832803 64.04605399 -7.23222552 64.98537286 -4.06640625 65.92578125 C-2.73609375 66.31733398 -2.73609375 66.31733398 -1.37890625 66.71679688 C3.98521322 68.3142001 9.21717137 70.08399544 14.43359375 72.11328125 C12.36841378 83.26525307 6.57743397 91.4739937 -2.56640625 98.11328125 C-16.78029554 107.07573361 -34.59248413 108.32706421 -50.8984375 105.45703125 C-65.65262597 101.93182865 -77.24315147 94.34062977 -85.31640625 81.48828125 C-94.61922023 64.5180795 -95.32498515 45.42949026 -90.78515625 26.9296875 C-88.6296876 19.63639916 -85.2174431 14.07898172 -80.56640625 8.11328125 C-79.96828125 7.22640625 -79.37015625 6.33953125 -78.75390625 5.42578125 C-59.10198985 -15.34910181 -22.4752558 -16.52290495 0 0 Z " fill="#000000" transform="translate(566.56640625,99.88671875)"/>
<path d="M0 0 C10.89 0 21.78 0 33 0 C39.19744056 19.71912906 45.16338916 39.50253824 51.0625 59.3125 C51.25807873 59.96927105 51.45365746 60.6260421 51.65516281 61.3027153 C54.10616673 69.53433363 56.55435441 77.76678809 59 86 C61.04727894 82.92908159 61.90769502 80.4768879 62.98364258 76.96240234 C63.3677681 75.71615082 63.75189362 74.46989929 64.1476593 73.18588257 C64.56341188 71.81927333 64.97903232 70.45262388 65.39453125 69.0859375 C65.82769826 67.67351171 66.26127345 66.26121104 66.69523621 64.84902954 C67.84028945 61.11848974 68.97925437 57.38611671 70.11712646 53.65338135 C71.03193264 50.65603212 71.95104372 47.66001209 72.87040901 44.66405869 C79.15600671 24.19456358 79.15600671 24.19456358 85.16674805 3.64306641 C86 1 86 1 87 0 C89.3756852 -0.0883967 91.72208674 -0.11530305 94.09765625 -0.09765625 C95.16094398 -0.09553383 95.16094398 -0.09553383 96.24571228 -0.09336853 C98.51801712 -0.08775443 100.79022475 -0.07519963 103.0625 -0.0625 C104.59960796 -0.05748681 106.13671745 -0.05292359 107.67382812 -0.04882812 C111.44925642 -0.03778042 115.22461171 -0.02050641 119 0 C116.88782194 7.40327145 114.39209682 14.6134754 111.7109375 21.828125 C111.29459549 22.95595901 110.87825348 24.08379303 110.44929504 25.24580383 C109.32616775 28.28652634 108.20038934 31.3262501 107.07336044 34.36552811 C105.89996401 37.53184806 104.73005653 40.69945655 103.55981445 43.86694336 C101.64763821 49.04135921 99.73351427 54.2150503 97.81787109 59.38818359 C95.15223401 66.58685374 92.49138622 73.78728785 89.83203125 80.98828125 C85.89066788 91.65983444 81.94620879 102.33023758 78 113 C65.79 113 53.58 113 41 113 C31.66958521 87.99601377 22.39673609 62.97178981 13.20556641 37.91625977 C12.84758972 36.94044449 12.48961304 35.96462921 12.12078857 34.95924377 C11.4214522 33.05206231 10.7225873 31.1447079 10.02423096 29.23716736 C8.33474424 24.62474492 6.63603425 20.01610588 4.91845703 15.4140625 C4.59031509 14.53226318 4.26217316 13.65046387 3.92408752 12.74194336 C3.30518236 11.0802803 2.68368669 9.41957903 2.05918884 7.76000977 C0 2.22341764 0 2.22341764 0 0 Z " fill="#000000" transform="translate(221,91)"/>
<path d="M0 0 C-0.31150299 3.00010649 -0.6241754 6.00008366 -0.9375 9 C-1.02451172 9.83917969 -1.11152344 10.67835937 -1.20117188 11.54296875 C-1.74128638 16.70406292 -2.33875322 21.85299802 -3 27 C-4.01513672 26.76410156 -4.01513672 26.76410156 -5.05078125 26.5234375 C-14.00946325 24.93341977 -23.01013272 24.77839036 -30.984375 29.53125 C-37.46295506 34.25207578 -40.02782407 40.45032994 -42 48 C-42.56610986 53.09601265 -42.60629347 58.17147881 -42.609375 63.29296875 C-42.62439056 64.73458176 -42.64112466 66.17617778 -42.65948486 67.61775208 C-42.70279303 71.37412394 -42.72307515 75.13026396 -42.73822021 78.88684082 C-42.7614017 83.41431742 -42.81378798 87.94154297 -42.86116028 92.46881866 C-42.92956167 99.31261048 -42.96134247 106.15568502 -43 113 C-53.23 113 -63.46 113 -74 113 C-74 75.71 -74 38.42 -74 0 C-65.09 0 -56.18 0 -47 0 C-46.161068 4.19465999 -45.71566465 8.06055456 -45.4375 12.3125 C-45.31181641 14.19388672 -45.31181641 14.19388672 -45.18359375 16.11328125 C-45.12300781 17.06589844 -45.06242187 18.01851562 -45 19 C-43.51969719 17.05223315 -42.07013655 15.10499229 -40.7109375 13.0703125 C-30.90553556 -1.20772892 -15.90726582 -4.18524499 0 0 Z " fill="#000000" transform="translate(97,91)"/>
<path d="M0 0 C10.23 0 20.46 0 31 0 C31 37.29 31 74.58 31 113 C20.77 113 10.54 113 0 113 C0 75.71 0 38.42 0 0 Z " fill="#000000" transform="translate(357,91)"/>
<path d="M0 0 C4.10599897 2.46189565 6.70592025 4.91785325 8.25 9.57421875 C9.63083839 15.20976544 9.91917551 19.95575423 7.5 25.3125 C4.37512536 30.04445302 1.07957586 33.05631031 -4.5 34.3125 C-11.14115623 35.02724327 -17.66258195 34.84148455 -23.5 31.3125 C-27.62123844 27.37044584 -29.54762307 23.93152391 -30.5 18.3125 C-30.58447177 12.27276856 -29.53033456 7.99640233 -25.5 3.3125 C-18.0741547 -2.29477094 -8.72230128 -4.0736925 0 0 Z " fill="#000000" transform="translate(446.5,171.6875)"/>
<path d="M0 0 C3.89869323 3.31803679 5.77643787 5.49317213 6.23828125 10.671875 C6.39979745 17.37054705 6.28099203 21.70508881 2 27 C-4.77480942 31.32434644 -12.6383283 32.08949169 -20.44140625 30.50390625 C-25.37899081 29.06411635 -28.32227808 27.6056817 -31 23 C-33.59691936 17.68249845 -33.25982632 12.65542471 -32 7 C-29.56442839 2.03865043 -27.10777735 0.02182853 -22 -2 C-14.64729935 -4.17238883 -6.73326591 -3.78559172 0 0 Z " fill="#000000" transform="translate(386,45)"/>
</svg>
